<?xml version="1.0" standalone="no"?>
<!DOCTYPE svg PUBLIC "-//W3C//DTD SVG 20010904//EN"
 "http://www.w3.org/TR/2001/REC-SVG-20010904/DTD/svg10.dtd">
<svg version="1.0" xmlns="http://www.w3.org/2000/svg"
 width="512.000000pt" height="512.000000pt" viewBox="0 0 512.000000 512.000000"
 preserveAspectRatio="xMidYMid meet">
<metadata>
Created by potrace 1.14, written by Peter Selinger 2001-2017
</metadata>
<g transform="translate(0.000000,512.000000) scale(0.100000,-0.100000)"
fill="#000000" stroke="none">
<path d="M908 4595 c-2 -2 -19 -5 -39 -8 -166 -22 -348 -151 -426 -304 -83
-162 -89 -293 -24 -528 10 -38 56 -205 100 -370 45 -165 84 -305 86 -312 2 -7
-25 -50 -62 -95 -135 -170 -297 -434 -373 -608 -50 -115 -56 -129 -83 -215
-64 -196 -82 -310 -82 -508 l0 -129 110 -44 c61 -24 297 -116 525 -204 228
-89 471 -183 540 -210 69 -27 168 -65 220 -85 52 -21 147 -57 210 -82 63 -25
288 -112 500 -194 212 -82 399 -156 416 -163 30 -14 40 -11 235 65 112 44 242
95 289 113 366 141 437 168 455 176 11 5 45 19 75 30 30 11 64 25 75 30 11 5
209 82 440 171 231 89 555 215 720 279 l300 117 0 134 c-1 208 -20 315 -91
529 -89 266 -278 595 -475 831 l-39 46 21 74 c12 41 27 97 34 124 8 28 48 176
90 330 86 317 90 335 89 425 -1 161 -57 298 -169 412 -199 203 -537 230 -764
61 -43 -32 -344 -310 -477 -441 l-23 -22 -133 53 c-186 75 -322 113 -468 132
-51 6 -255 7 -285 1 -11 -2 -42 -7 -70 -10 -120 -17 -412 -111 -518 -167 -22
-13 -32 -5 -208 162 -75 71 -150 142 -166 156 -15 14 -51 48 -80 75 -112 105
-254 167 -397 172 -42 2 -77 2 -78 1z m140 -414 c20 -11 51 -32 67 -48 308
-288 337 -318 320 -328 -79 -47 -373 -279 -474 -374 -19 -17 -35 -30 -36 -29
-12 12 -155 574 -155 606 0 76 47 148 115 178 44 20 120 17 163 -5z m3173 9
c71 -20 129 -102 129 -184 0 -22 -30 -149 -66 -281 -36 -132 -68 -250 -70
-262 -13 -69 -16 -70 -80 -11 -135 123 -301 254 -423 334 l-43 28 89 86 c215
205 280 263 313 281 39 20 97 24 151 9z m-1857 -679 l-1 -281 197 0 197 0 -1
273 c-1 149 2 277 7 283 9 14 161 -31 298 -89 119 -49 323 -162 437 -242 114
-79 360 -273 361 -285 1 -3 -36 -6 -82 -6 -266 -3 -468 -83 -637 -252 -100
-101 -165 -205 -208 -337 -31 -91 -37 -138 -37 -275 0 -145 16 -219 77 -349
112 -243 346 -429 598 -476 71 -13 111 -17 196 -17 l99 -1 -45 -19 c-25 -11
-202 -80 -395 -155 -192 -74 -363 -141 -380 -148 -67 -29 -476 -185 -485 -185
-5 0 -162 59 -347 132 -186 72 -378 147 -428 166 -49 19 -110 42 -135 52 -25
10 -116 45 -204 79 -87 34 -165 65 -173 70 -9 4 29 8 89 9 118 1 232 22 327
60 274 108 476 354 529 642 9 50 8 246 -1 304 -25 155 -130 350 -244 457 -182
169 -371 240 -645 243 -38 0 -68 3 -67 6 0 6 101 90 199 166 228 178 505 335
720 407 116 39 172 55 180 51 3 -1 5 -129 4 -283z m-903 -751 c252 -48 416
-294 364 -545 -35 -167 -168 -305 -338 -349 -40 -11 -164 -14 -564 -15 l-511
-2 5 23 c57 259 186 525 388 801 l70 96 266 1 c147 0 290 -5 320 -10z m2824
-47 c194 -246 374 -603 410 -812 3 -19 8 -38 11 -43 7 -12 -989 -9 -1051 3
-162 31 -312 169 -354 326 -16 58 -20 158 -8 212 37 176 188 328 358 360 24 4
166 9 316 10 l272 2 46 -58z"/>
<path d="M2398 1648 c-45 -9 -98 -71 -98 -114 0 -48 14 -78 62 -130 37 -41
153 -125 191 -140 19 -7 155 85 205 140 77 84 84 144 22 206 -22 22 -50 40
-62 41 -96 4 -293 3 -320 -3z"/>
<path d="M1386 2497 c-49 -12 -121 -84 -130 -128 -11 -56 -6 -102 14 -144 25
-51 53 -77 106 -97 107 -40 224 19 254 128 42 150 -92 281 -244 241z"/>
<path d="M3628 2500 c-76 -21 -134 -85 -144 -161 -21 -155 132 -271 273 -204
82 38 117 98 111 186 -9 124 -124 210 -240 179z"/>
</g>
</svg>
